# xmcd
#
# Track frame offsets:
# 150
# 18149
# 30267
# 54523
# 71478
# 86345
# 106884
# 140614
# 160768
# 187150
# 204529
# 217408
# 233634
# 252537
# 266640
# 284084
#
# Disc length: 3956 seconds
#
#
# Revision: 0
# Processed by: cddbd v1.5.2PL0 Copyright (c) Steve Scherf et al.
# Submitted via: FreeRIP 2.96 
#
DISCID=eb0f7210
DTITLE=Various Jazz Artists - Verve Today 2007
DYEAR=2007
DGENRE=Jazz
TTITLE0=Vienna Teng - Whatever You Want
TTITLE1=Mark Murphy - Stolen Moments
TTITLE2=Dee Dee Bridgewater - Four Women
TTITLE3=Natalie Cole - You Gotta Be
TTITLE4=Christina Bjordal - How Peaceful
TTITLE5=Denzal Sinclaire - Follow You, Follow Me
TTITLE6=Sonny Rollins - Park Palace Parade
TTITLE7=Silje Nergaard - Before You Called Me Yours
TTITLE8=Mário Laginha - Do Lado De Cá Do Mar
TTITLE9=Punkt Feat. Sidsel Endresen - Map
TTITLE10=Lizz Wright - Reaching For The Moon
TTITLE11=Molly Johnson - Messin' Around
TTITLE12=Brazilian Girls - Last Call
TTITLE13=G-Swing Feat. Jimi Bazzooka - Cement Mixer
TTITLE14=Thomas Quasthoff - Ac-Cent-Tchu-Ate The Positive
TTITLE15=Johnny Liebling - Mädchen
EXTD=
EXTT0=
EXTT1=
EXTT2=
EXTT3=
EXTT4=
EXTT5=
EXTT6=
EXTT7=
EXTT8=
EXTT9=
EXTT10=
EXTT11=
EXTT12=
EXTT13=
EXTT14=
EXTT15=
PLAYORDER=
